<svg aria-hidden="true" style="position: absolute; width: 0; height: 0; overflow: hidden;" version="1.1" xmlns="http://www.w3.org/2000/svg" xmlns:xlink="http://www.w3.org/1999/xlink">
<defs>
<symbol id="icon-arrow_forward_ios" viewBox="0 0 24 24">
<path d="M5.859 4.125l2.156-2.109 9.984 9.984-9.984 9.984-2.156-2.109 7.922-7.875z"></path>
</symbol>
<symbol id="icon-arrow_back_ios" viewBox="0 0 24 24">
<path d="M11.672 3.891l-8.109 8.109 8.109 8.109-1.781 1.781-9.891-9.891 9.891-9.891z"></path>
</symbol>
<symbol id="icon-home" viewBox="0 0 24 24">
<path d="M2.386 8.211c-0.236 0.184-0.386 0.469-0.386 0.789v11c0 0.828 0.337 1.58 0.879 2.121s1.293 0.879 2.121 0.879h14c0.828 0 1.58-0.337 2.121-0.879s0.879-1.293 0.879-2.121v-11c-0.001-0.3-0.134-0.593-0.386-0.789l-9-7c-0.358-0.275-0.861-0.285-1.228 0zM16 21v-9c0-0.552-0.448-1-1-1h-6c-0.552 0-1 0.448-1 1v9h-3c-0.276 0-0.525-0.111-0.707-0.293s-0.293-0.431-0.293-0.707v-10.511l8-6.222 8 6.222v10.511c0 0.276-0.111 0.525-0.293 0.707s-0.431 0.293-0.707 0.293zM10 21v-8h4v8z"></path>
</symbol>
<symbol id="icon-search" viewBox="0 0 24 24">
<path d="M16.041 15.856c-0.034 0.026-0.067 0.055-0.099 0.087s-0.060 0.064-0.087 0.099c-1.258 1.213-2.969 1.958-4.855 1.958-1.933 0-3.682-0.782-4.95-2.050s-2.050-3.017-2.050-4.95 0.782-3.682 2.050-4.95 3.017-2.050 4.95-2.050 3.682 0.782 4.95 2.050 2.050 3.017 2.050 4.95c0 1.886-0.745 3.597-1.959 4.856zM21.707 20.293l-3.675-3.675c1.231-1.54 1.968-3.493 1.968-5.618 0-2.485-1.008-4.736-2.636-6.364s-3.879-2.636-6.364-2.636-4.736 1.008-6.364 2.636-2.636 3.879-2.636 6.364 1.008 4.736 2.636 6.364 3.879 2.636 6.364 2.636c2.125 0 4.078-0.737 5.618-1.968l3.675 3.675c0.391 0.391 1.024 0.391 1.414 0s0.391-1.024 0-1.414z"></path>
</symbol>
<symbol id="icon-heart" viewBox="0 0 24 24">
<path d="M12 10.375c0-2.416-1.959-4.375-4.375-4.375s-4.375 1.959-4.375 4.375c0 1.127 0.159 2.784 1.75 4.375s7 5.25 7 5.25 5.409-3.659 7-5.25 1.75-3.248 1.75-4.375c0-2.416-1.959-4.375-4.375-4.375s-4.375 1.959-4.375 4.375"></path>
</symbol>
<symbol id="icon-media-play" viewBox="0 0 24 24">
<path d="M10.396 18.433c2.641-2.574 6.604-6.433 6.604-6.433s-3.963-3.859-6.604-6.433c-0.363-0.349-0.853-0.567-1.396-0.567-1.104 0-2 0.896-2 2v10c0 1.104 0.896 2 2 2 0.543 0 1.033-0.218 1.396-0.567z"></path>
</symbol>
<symbol id="icon-plus-square" viewBox="0 0 24 28">
<path d="M20 15v-2c0-0.547-0.453-1-1-1h-5v-5c0-0.547-0.453-1-1-1h-2c-0.547 0-1 0.453-1 1v5h-5c-0.547 0-1 0.453-1 1v2c0 0.547 0.453 1 1 1h5v5c0 0.547 0.453 1 1 1h2c0.547 0 1-0.453 1-1v-5h5c0.547 0 1-0.453 1-1zM24 6.5v15c0 2.484-2.016 4.5-4.5 4.5h-15c-2.484 0-4.5-2.016-4.5-4.5v-15c0-2.484 2.016-4.5 4.5-4.5h15c2.484 0 4.5 2.016 4.5 4.5z"></path>
</symbol>
<symbol id="icon-book" viewBox="0 0 32 32">
<path d="M17 9h-6v19h14v-19h-8zM26 29h-17.006c-1.651 0-2.994-1.343-2.994-2.999v-19.501c0-1.39 1.116-2.5 2.493-2.5h17.507v1h-0.505c-0.818 0-1.495 0.672-1.495 1.5 0 0.834 0.669 1.5 1.495 1.5h0.505v21zM10 28v-19h-1.507c-0.559 0-1.076-0.185-1.493-0.498v17.507c0 1.1 0.893 1.991 1.995 1.991h1.005zM8.493 5c-0.825 0-1.493 0.666-1.493 1.5 0 0.828 0.667 1.5 1.493 1.5h15.007c0 0-0.5-0.79-0.5-1.526s0.5-1.474 0.5-1.474h-15.007z"></path>
</symbol>
</defs>
</svg>
